<svg xmlns="http://www.w3.org/2000/svg" fill="none" viewBox="0 0 24 24" class="fill-gray-900 dark:fill-white" width="40" height="40"><path fill="#fff" d="M2.5 14.148c.066-.196.135-.39.199-.586l.892-2.759c.128-.394.255-.788.397-1.184l.07.372.243 1.264c.04.208.073.417.122.623a.6.6 0 0 0 .114.206q.42.547.844 1.09.422.537.843 1.076l.667.86.768.993q.313.409.63.816.45.576.9 1.152.374.486.749.971.384.492.769.984c.11.14.217.282.314.436l-.696-.516-2.1-1.55-1.978-1.464-2.517-1.87-1.195-.887c-.009-.007-.023-.006-.035-.008zM12.01 3l.523.651.7.87q.304.371.607.742.343.429.688.857c.256.316.516.63.772.946.23.282.451.571.687.848.067.08.075.138.043.233-.332.978-.658 1.958-.986 2.937l-1.066 3.178a.06.06 0 0 0 .005.05q.03-.057.058-.115.72-1.428 1.436-2.858.503-1.006 1.006-2.01c.247-.493.5-.983.746-1.476a.4.4 0 0 0 .031-.16c-.002-.174.001-.35-.022-.52a10 10 0 0 0-.155-.883 4.2 4.2 0 0 0-.392-1.016 5 5 0 0 0-.651-.935 5.1 5.1 0 0 0-1.67-1.23q-.055-.025-.11-.048c-.033-.014-.066-.027-.095-.056h.082l3.47-.001c.066 0 .096.016.119.083.165.486.337.969.505 1.454q.259.754.518 1.508.285.819.567 1.639c.013.036.011.09-.008.12q-.713 1.165-1.427 2.329c-.38.622-.755 1.248-1.135 1.87-.388.635-.782 1.266-1.17 1.9q-.748 1.23-1.495 2.46-.728 1.192-1.46 2.385c-.235.385-.473.77-.72 1.172l-.216-.352-.91-1.481-.813-1.332q-.582-.96-1.165-1.917c-.407-.665-.819-1.327-1.225-1.992-.431-.704-.857-1.412-1.288-2.117q-.657-1.071-1.317-2.141c-.16-.26-.321-.52-.474-.784-.023-.04-.018-.11-.002-.157.237-.69.48-1.38.72-2.07l.87-2.512c.014-.044.032-.065.083-.065l3.567.001q.006 0 .022.006c-.154.075-.305.144-.453.22-.324.165-.621.371-.904.6-.39.316-.712.69-.982 1.108-.288.446-.496.93-.609 1.448-.06.28-.098.565-.134.849-.02.168-.02.339-.024.509 0 .038.019.078.037.114l2.681 5.339.548 1.09c.004.008.011.014.03.017q-.057-.187-.118-.373L8.562 9.844q-.293-.875-.587-1.75c-.02-.06-.012-.096.027-.143q.304-.37.604-.743l.443-.548q.266-.333.534-.665.26-.317.517-.634c.235-.289.466-.58.701-.869.203-.25.41-.498.612-.748.199-.245.395-.492.597-.744m.008 1.98c-.079.088-.142.154-.2.223q-.386.45-.77.9-.298.348-.598.693c-.304.35-.607.703-.918 1.049-.104.115-.135.212-.07.368.177.421.33.852.492 1.28l.47 1.237q.347.916.696 1.83.372.982.748 1.962l.133.348.017-.005zM12.986 20.45l.461-.597.636-.813.638-.822q.308-.395.615-.79.312-.406.625-.81.31-.398.622-.796.322-.414.642-.83.382-.498.767-.995.516-.66 1.034-1.32c.18-.232.367-.46.539-.698.047-.066.055-.163.071-.247.063-.324.12-.649.181-.973l.201-1.072c.005-.024.013-.047.024-.082l.569 1.76.78 2.42c.032.098.054.2.096.293.031.069.003.1-.043.135q-1.085.798-2.168 1.598-1.17.864-2.34 1.73-1.121.837-2.244 1.672c-.563.418-1.13.831-1.694 1.247z"></path></svg>